<svg xmlns:xlink="http://www.w3.org/1999/xlink" version="1.1" class="highcharts-root" style="font-family:&quot;Lucida Grande&quot;, &quot;Lucida Sans Unicode&quot;, Arial, Helvetica, sans-serif;font-size:12px;" xmlns="http://www.w3.org/2000/svg" width="1039" height="400" viewBox="0 0 1039 400"><desc>Created with Highcharts 7.2.1</desc><defs><clipPath id="highcharts-p9ve532-1081-"><rect x="0" y="0" width="961" height="244" fill="none"></rect></clipPath></defs><rect fill="#ffffff" class="highcharts-background" x="0" y="0" width="1039" height="400" rx="0" ry="0"></rect><rect fill="none" class="highcharts-plot-background" x="68" y="53" width="961" height="244"></rect><g class="highcharts-grid highcharts-xaxis-grid hc0-x-axis-id-0" data-z-index="1"><path fill="none" stroke="#e6e6e6" stroke-width="1" data-z-index="1" class="highcharts-grid-line" d="M 76.5 53 L 76.5 297" opacity="1"></path><path fill="none" stroke="#e6e6e6" stroke-width="1" data-z-index="1" class="highcharts-grid-line" d="M 158.5 53 L 158.5 297" opacity="1"></path><path fill="none" stroke="#e6e6e6" stroke-width="1" data-z-index="1" class="highcharts-grid-line" d="M 239.5 53 L 239.5 297" opacity="1"></path><path fill="none" stroke="#e6e6e6" stroke-width="1" data-z-index="1" class="highcharts-grid-line" d="M 321.5 53 L 321.5 297" opacity="1"></path><path fill="none" stroke="#e6e6e6" stroke-width="1" data-z-index="1" class="highcharts-grid-line" d="M 402.5 53 L 402.5 297" opacity="1"></path><path fill="none" stroke="#e6e6e6" stroke-width="1" data-z-index="1" class="highcharts-grid-line" d="M 484.5 53 L 484.5 297" opacity="1"></path><path fill="none" stroke="#e6e6e6" stroke-width="1" data-z-index="1" class="highcharts-grid-line" d="M 565.5 53 L 565.5 297" opacity="1"></path><path fill="none" stroke="#e6e6e6" stroke-width="1" data-z-index="1" class="highcharts-grid-line" d="M 647.5 53 L 647.5 297" opacity="1"></path><path fill="none" stroke="#e6e6e6" stroke-width="1" data-z-index="1" class="highcharts-grid-line" d="M 728.5 53 L 728.5 297" opacity="1"></path><path fill="none" stroke="#e6e6e6" stroke-width="1" data-z-index="1" class="highcharts-grid-line" d="M 810.5 53 L 810.5 297" opacity="1"></path><path fill="none" stroke="#e6e6e6" stroke-width="1" data-z-index="1" class="highcharts-grid-line" d="M 891.5 53 L 891.5 297" opacity="1"></path><path fill="none" stroke="#e6e6e6" stroke-width="1" data-z-index="1" class="highcharts-grid-line" d="M 972.5 53 L 972.5 297" opacity="1"></path></g><g class="highcharts-grid highcharts-yaxis-grid highcharts-color-0" data-z-index="1"><path fill="none" stroke="#e6e6e6" stroke-width="1" data-z-index="1" class="highcharts-grid-line" d="M 68 297.5 L 1029 297.5" opacity="1"></path><path fill="none" stroke="#e6e6e6" stroke-width="1" data-z-index="1" class="highcharts-grid-line" d="M 68 236.5 L 1029 236.5" opacity="1"></path><path fill="none" stroke="#e6e6e6" stroke-width="1" data-z-index="1" class="highcharts-grid-line" d="M 68 175.5 L 1029 175.5" opacity="1"></path><path fill="none" stroke="#e6e6e6" stroke-width="1" data-z-index="1" class="highcharts-grid-line" d="M 68 114.5 L 1029 114.5" opacity="1"></path><path fill="none" stroke="#e6e6e6" stroke-width="1" data-z-index="1" class="highcharts-grid-line" d="M 68 52.5 L 1029 52.5" opacity="1"></path></g><rect fill="none" class="highcharts-plot-border" data-z-index="1" x="68" y="53" width="961" height="244"></rect><g class="highcharts-axis highcharts-xaxis hc0-x-axis-id-0" data-z-index="2"><path fill="none" class="highcharts-tick" stroke="#ccd6eb" stroke-width="1" d="M 76.5 297 L 76.5 307" opacity="1"></path><path fill="none" class="highcharts-tick" stroke="#ccd6eb" stroke-width="1" d="M 158.5 297 L 158.5 307" opacity="1"></path><path fill="none" class="highcharts-tick" stroke="#ccd6eb" stroke-width="1" d="M 239.5 297 L 239.5 307" opacity="1"></path><path fill="none" class="highcharts-tick" stroke="#ccd6eb" stroke-width="1" d="M 321.5 297 L 321.5 307" opacity="1"></path><path fill="none" class="highcharts-tick" stroke="#ccd6eb" stroke-width="1" d="M 402.5 297 L 402.5 307" opacity="1"></path><path fill="none" class="highcharts-tick" stroke="#ccd6eb" stroke-width="1" d="M 484.5 297 L 484.5 307" opacity="1"></path><path fill="none" class="highcharts-tick" stroke="#ccd6eb" stroke-width="1" d="M 565.5 297 L 565.5 307" opacity="1"></path><path fill="none" class="highcharts-tick" stroke="#ccd6eb" stroke-width="1" d="M 647.5 297 L 647.5 307" opacity="1"></path><path fill="none" class="highcharts-tick" stroke="#ccd6eb" stroke-width="1" d="M 728.5 297 L 728.5 307" opacity="1"></path><path fill="none" class="highcharts-tick" stroke="#ccd6eb" stroke-width="1" d="M 810.5 297 L 810.5 307" opacity="1"></path><path fill="none" class="highcharts-tick" stroke="#ccd6eb" stroke-width="1" d="M 891.5 297 L 891.5 307" opacity="1"></path><path fill="none" class="highcharts-tick" stroke="#ccd6eb" stroke-width="1" d="M 972.5 297 L 972.5 307" opacity="1"></path><text x="548.5" data-z-index="7" text-anchor="middle" transform="translate(0,0)" class="highcharts-axis-title" style="color:#000000;font-size:12;fill:#000000;" y="336"><tspan>X axis</tspan></text><path fill="none" class="highcharts-axis-line" stroke="#ccd6eb" stroke-width="1" data-z-index="7" d="M 68 297.5 L 1029 297.5"></path></g><g class="highcharts-axis highcharts-yaxis highcharts-color-0" data-z-index="2"><text x="26.390625" data-z-index="7" text-anchor="middle" transform="translate(0,0) rotate(270 26.390625 175)" class="highcharts-axis-title" style="color:#000000;font-size:12;fill:#000000;" y="175"><tspan>Values, y</tspan></text><path fill="none" class="highcharts-axis-line" data-z-index="7" d="M 68 53 L 68 297"></path></g><g class="highcharts-series-group" data-z-index="3"><g data-z-index="0.1" class="highcharts-series highcharts-series-0 highcharts-line-series highcharts-color-0" transform="translate(68,53) scale(1 1)" clip-path="url(#highcharts-p9ve532-1081-)"><path fill="none" d="M 9.421568627451 103.67896780034982 L 38.485212000223 104.24127399232137 L 67.548855372995 104.94512220341895 L 96.612498745767 105.7996714089168 L 125.67614211854 106.8258842497533 L 154.73978549131 108.03019197738865 L 183.80342886408 109.4314459789349 L 212.86707223685 111.04634927809013 L 241.93071560963 112.88178171865835 L 270.9943589824 114.95536877304471 L 300.05800235517 117.28545333698497 L 329.12164572794 119.879327530849 L 358.18528910071 122.75257391464275 L 387.24893247349 125.92435869185654 L 416.31257584626 129.4040260454807 L 445.37621921903 133.20429980253715 L 474.4398625918 137.3444568265714 L 503.50350596457 141.83722839109868 L 532.56714933735 146.68913058686192 L 561.63079271012 151.93020323080617 L 590.69443608289 157.56108106879708 L 619.75807945566 163.5949221474032 L 648.82172282843 170.0602545467089 L 677.88536620121 176.95493798250328 L 706.94900957398 184.30230519951073 L 736.01265294675 192.11460175727154 L 765.07629631952 200.40614859893978 L 794.13993969229 209.1912236358882 L 823.20358306507 218.48487470382713 L 852.26722643784 228.30046066085202" class="highcharts-graph" data-z-index="1" stroke="#7cb5ec" stroke-width="2" stroke-linejoin="round" stroke-linecap="round"></path></g><g data-z-index="0.1" class="highcharts-markers highcharts-series-0 highcharts-line-series highcharts-color-0" transform="translate(68,53) scale(1 1)" clip-path="none"></g><g data-z-index="0.1" class="highcharts-series highcharts-series-1 highcharts-line-series highcharts-color-1" transform="translate(68,53) scale(1 1)" clip-path="url(#highcharts-p9ve532-1081-)"><path fill="none" d="M 9.421568627451 38.22009348721727 L 41.909736308316 38.84080970863218 L 74.397903989182 39.60131457987825 L 106.88607167005 40.509844885125375 L 139.37423935091 41.5851104966635 L 171.86240703178 42.83286865963845 L 204.35057471264 44.269972951956106 L 236.83874239351 45.91135560571294 L 269.32691007437 47.76316555844829 L 301.81507775524 49.84115847643406 L 334.30324543611 52.16173047454117 L 366.79141311697 54.73139646092574 L 399.27958079784 57.5640822483866 L 431.7677484787 60.67691589295546 L 464.25591615957 64.07824215616623 L 496.74408384043 67.77942505709089 L 529.2322515213 71.79768414395178 L 561.72041920216 76.1443834350012 L 594.20858688303 80.82523279876008 L 626.69675456389 85.86741815923645 L 659.18492224476 91.27099024701079 L 691.67308992563 97.04781335128143 L 724.16125760649 103.22368290481037 L 756.64942528736 109.79612509289439 L 789.13759296822 116.78619328754854 L 821.62576064909 124.20465588526213 L 854.11392832995 132.06416637855145 L 886.60209601082 140.37729138122995 L 919.09026369168 149.1572170590074 L 951.57843137255 158.41552016874607" class="highcharts-graph" data-z-index="1" stroke="#434348" stroke-width="2" stroke-linejoin="round" stroke-linecap="round"></path></g><g data-z-index="0.1" class="highcharts-markers highcharts-series-1 highcharts-line-series highcharts-color-1" transform="translate(68,53) scale(1 1)" clip-path="none"></g></g><text x="520" text-anchor="middle" class="highcharts-title" data-z-index="4" style="color:null;font-size:18;" y="24"><tspan>Our nice chart</tspan></text><text x="520" text-anchor="middle" class="highcharts-subtitle" data-z-index="4" style="color:#666666;fill:#666666;" y="52"></text><text x="10" text-anchor="start" class="highcharts-caption" data-z-index="4" style="color:#666666;fill:#666666;" y="397"></text><g class="highcharts-legend" data-z-index="7" transform="translate(289,355)"><rect fill="none" class="highcharts-legend-box" rx="0" ry="0" x="0" y="0" width="461" height="30" visibility="visible"></rect><g data-z-index="1"><g><g class="highcharts-legend-item highcharts-line-series highcharts-color-0 highcharts-series-0" data-z-index="1" transform="translate(8,3)"><path fill="none" d="M 0 11 L 16 11" class="highcharts-graph" stroke="#7cb5ec" stroke-width="2"></path><text x="21" style="color:#333333;cursor:pointer;font-size:12px;font-weight:bold;fill:#333333;" text-anchor="start" data-z-index="2" y="15"><tspan>Line 0 - Hratedv(Qratedv)</tspan></text></g><g class="highcharts-legend-item highcharts-line-series highcharts-color-1 highcharts-series-1" data-z-index="1" transform="translate(203.640625,3)"><path fill="none" d="M 0 11 L 16 11" class="highcharts-graph" stroke="#434348" stroke-width="2"></path><text x="21" y="15" style="color:#333333;cursor:pointer;font-size:12px;font-weight:bold;fill:#333333;" text-anchor="start" data-z-index="2"><tspan>Line 1 - overall_Hsupv(overall_Qsupv)</tspan></text></g></g></g></g><g class="highcharts-axis-labels highcharts-xaxis-labels hc0-x-axis-id-0" data-z-index="7"><text x="77.421568627451" style="color:#666666;cursor:default;font-size:11px;fill:#666666;" text-anchor="middle" transform="translate(0,0)" y="316" opacity="1">0</text><text x="158.8775555071" style="color:#666666;cursor:default;font-size:11px;fill:#666666;" text-anchor="middle" transform="translate(0,0)" y="316" opacity="1">10</text><text x="240.33354238675" style="color:#666666;cursor:default;font-size:11px;fill:#666666;" text-anchor="middle" transform="translate(0,0)" y="316" opacity="1">20</text><text x="321.7895292664" style="color:#666666;cursor:default;font-size:11px;fill:#666666;" text-anchor="middle" transform="translate(0,0)" y="316" opacity="1">30</text><text x="403.24551614605" style="color:#666666;cursor:default;font-size:11px;fill:#666666;" text-anchor="middle" transform="translate(0,0)" y="316" opacity="1">40</text><text x="484.7015030257" style="color:#666666;cursor:default;font-size:11px;fill:#666666;" text-anchor="middle" transform="translate(0,0)" y="316" opacity="1">50</text><text x="566.15748990535" style="color:#666666;cursor:default;font-size:11px;fill:#666666;" text-anchor="middle" transform="translate(0,0)" y="316" opacity="1">60</text><text x="647.613476785" style="color:#666666;cursor:default;font-size:11px;fill:#666666;" text-anchor="middle" transform="translate(0,0)" y="316" opacity="1">70</text><text x="729.06946366465" style="color:#666666;cursor:default;font-size:11px;fill:#666666;" text-anchor="middle" transform="translate(0,0)" y="316" opacity="1">80</text><text x="810.5254505443" style="color:#666666;cursor:default;font-size:11px;fill:#666666;" text-anchor="middle" transform="translate(0,0)" y="316" opacity="1">90</text><text x="891.98143742395" style="color:#666666;cursor:default;font-size:11px;fill:#666666;" text-anchor="middle" transform="translate(0,0)" y="316" opacity="1">100</text><text x="973.4374243036" style="color:#666666;cursor:default;font-size:11px;fill:#666666;" text-anchor="middle" transform="translate(0,0)" y="316" opacity="1">110</text></g><g class="highcharts-axis-labels highcharts-yaxis-labels highcharts-color-0" data-z-index="7"><text x="53" style="color:#666666;cursor:default;font-size:11px;fill:#666666;" text-anchor="end" transform="translate(0,0)" y="301" opacity="1">20</text><text x="53" style="color:#666666;cursor:default;font-size:11px;fill:#666666;" text-anchor="end" transform="translate(0,0)" y="240" opacity="1">30</text><text x="53" style="color:#666666;cursor:default;font-size:11px;fill:#666666;" text-anchor="end" transform="translate(0,0)" y="179" opacity="1">40</text><text x="53" style="color:#666666;cursor:default;font-size:11px;fill:#666666;" text-anchor="end" transform="translate(0,0)" y="118" opacity="1">50</text><text x="53" style="color:#666666;cursor:default;font-size:11px;fill:#666666;" text-anchor="end" transform="translate(0,0)" y="57" opacity="1">60</text></g></svg>